<svg width="355" height="142" viewBox="0 0 355 142" fill="none" xmlns="http://www.w3.org/2000/svg">
<path d="M6 131C11.8324 127.574 37.495 119.842 93.486 116.319C94.7821 114.524 95.7218 110.935 89.1117 110.935L77.4469 112.404L25.9274 61.9975C24.9553 59.0613 25.0525 51.9163 33.2179 46.8268L51.6872 29.2091C53.4693 27.0885 57.714 24.1196 60.4358 29.2091L101.263 72.2745C102.721 73.7427 105.442 77.3641 104.665 80.1046V97.7222C107.743 103.432 115.26 114.361 120.704 112.404C125.888 113.382 135.382 113.676 131.883 107.02C127.67 104.247 119.537 95.7647 120.704 84.0196C120.704 77.9839 121.579 63.7593 125.078 55.1463C126.212 50.7418 131.397 42.5203 143.061 44.8693C147.598 46.0112 156.379 49.861 155.212 56.125C155.86 60.2032 155.99 68.0659 151.324 66.8914C148.146 64.4916 141.665 61.4328 140.683 67.9636C140.664 68.1361 140.644 68.3128 140.624 68.4914L140.145 77.1683L148.894 85.9771C156.184 87.119 170.279 86.4665 168.335 74.7214C167.201 68.3595 163.669 54.559 158.615 50.2525C156.508 42.4224 154.046 24.0217 161.045 13.0596C164.123 8.65523 172.223 0.335786 180 2.2933C184.698 2.29331 194.873 4.74021 197.983 14.5278C199.927 21.216 201.969 33.5156 194.581 29.2091C192.799 25.6204 188.068 19.7152 183.402 24.8048C180.324 27.2517 176.306 33.5157 184.86 38.9968C193.771 45.5218 211.689 61.5082 212.078 73.2533C215.966 87.7389 225.687 83.8565 230.061 80.1046C234.727 76.9726 233.626 59.5507 232.492 51.2312C238.324 54.4938 249.989 65.2275 249.989 82.0621C250.313 87.9347 248.239 101.833 237.352 110.446C240.106 113.872 247.85 118.178 256.793 107.999L261.654 100.169L263.112 79.1259L314.145 24.8048L315.117 36.0605C301.67 49.6 275.068 77.9513 276.235 83.0409C275.101 87.2822 275.846 96.6456 287.899 100.169C291.14 101.148 299.759 99.9734 308.313 87.4453L337.961 58.5719H345.251V64.4445L298.106 111.425C297.134 113.056 291.691 115.634 277.693 112.893L276.235 118.766C286.441 118.602 316.284 120.527 354 129.532L6 131Z" fill="#FFFBFB"/>
<path d="M140.631 68.3595C140.646 68.2238 140.663 68.0918 140.683 67.9636M140.631 68.3595C139.854 75.4066 140.342 71.0318 140.683 67.9636M140.631 68.3595L140.145 77.1683L148.894 85.9771C156.184 87.119 170.279 86.4665 168.335 74.7214C167.201 68.3595 163.669 54.559 158.615 50.2525C156.508 42.4224 154.046 24.0217 161.045 13.0596C164.123 8.65523 172.223 0.335786 180 2.2933C184.698 2.29331 194.873 4.74021 197.983 14.5278C199.927 21.216 201.969 33.5156 194.581 29.2091C192.799 25.6204 188.068 19.7152 183.402 24.8048C180.324 27.2517 176.306 33.5157 184.86 38.9968C193.771 45.5218 211.689 61.5082 212.078 73.2533C215.966 87.7389 225.687 83.8565 230.061 80.1046C234.727 76.9726 233.626 59.5507 232.492 51.2312C238.324 54.4938 249.989 65.2275 249.989 82.0621C250.313 87.9347 248.239 101.833 237.352 110.446C240.106 113.872 247.85 118.178 256.793 107.999L261.654 100.169L263.112 79.1259L314.145 24.8048L315.117 36.0605C301.67 49.6 275.068 77.9513 276.235 83.0409C275.101 87.2822 275.846 96.6456 287.899 100.169C291.14 101.148 299.759 99.9734 308.313 87.4453L337.961 58.5719H345.251V64.4445L298.106 111.425C297.134 113.056 291.691 115.634 277.693 112.893L276.235 118.766C286.441 118.602 316.284 120.527 354 129.532L6 131C11.8324 127.574 37.495 119.842 93.486 116.319C94.7821 114.524 95.7218 110.935 89.1117 110.935L77.4469 112.404L25.9274 61.9975C24.9553 59.0613 25.0525 51.9163 33.2179 46.8268L51.6872 29.2091C53.4693 27.0885 57.714 24.1196 60.4358 29.2091L101.263 72.2745C102.721 73.7427 105.442 77.3641 104.665 80.1046V97.7222C107.743 103.432 115.26 114.361 120.704 112.404C125.888 113.382 135.382 113.676 131.883 107.02C127.67 104.247 119.537 95.7647 120.704 84.0196C120.704 77.984 121.579 63.7593 125.078 55.1463C126.212 50.7418 131.397 42.5203 143.061 44.8693C147.598 46.0112 156.379 49.861 155.212 56.125C155.86 60.2032 155.99 68.0659 151.324 66.8914C148.146 64.4916 141.665 61.4328 140.683 67.9636" stroke="#FFFBFB" stroke-width="3"/>
<path d="M205.188 94.3221C208.641 78.6577 202.151 68.6923 198.475 65.6677C182.418 52.6777 176.76 43.0625 175.938 39.8787C170.184 33.3837 178.335 21.2533 183.131 16C178.472 17.7511 168.964 22.7815 168.197 28.8945C167.261 31.2823 166.156 37.6818 169.225 44.1768C169.992 52.5821 172.102 65.5085 173.061 70.921C178.431 84.293 168.585 93.3669 162.991 96.2324C150.522 102.345 140.853 96.5508 137.577 92.8894C131.055 89.0688 131.982 74.4232 133.261 67.578C137.864 58.0265 131.343 62.3246 127.507 65.6677L126.068 76.1743C125.301 86.8719 131.183 94.9588 134.22 97.6651C141.509 109.891 156.438 107.535 162.991 104.829C171.485 103.097 177.673 94.2374 179.706 90.0239C182.72 83.9109 178.45 62.3246 175.938 52.2956C179.007 58.0265 188.405 66.1452 192.721 69.4883C200.393 72.5447 199.754 92.7302 198.475 102.441H217.176L233 92.8894L231.082 85.7258L217.176 94.3221H205.188Z" fill="#1D1D1D" stroke="#1D1D1D"/>
<path d="M63 42L96 77" stroke="#1D1D1D" stroke-width="4"/>
<path d="M52 52L85 87" stroke="#1D1D1D" stroke-width="4"/>
<path d="M40 62L73 97" stroke="#1D1D1D" stroke-width="4"/>
</svg>
